<?xml version="1.0" encoding="UTF-8" standalone="no"?>
<svg width="1004px" height="1004px" viewBox="0 0 1004 1004" version="1.1" xmlns="http://www.w3.org/2000/svg" xmlns:xlink="http://www.w3.org/1999/xlink" xmlns:sketch="http://www.bohemiancoding.com/sketch/ns">
    <!-- Generator: Sketch 3.1.1 (8761) - http://www.bohemiancoding.com/sketch -->
    <title>stop 2</title>
    <desc>Created with Sketch.</desc>
    <defs></defs>
    <g id="Page-1" stroke="none" stroke-width="1" fill="none" fill-rule="evenodd" sketch:type="MSPage">
        <path d="M694,-10 L310,-10 L-10,310 L-10,694 L310,1014 L694,1014 L1014,694 L1014,310 L694,-10 L694,-10 Z M886,630 L630,886 L374,886 L118,630 L118,374 L374,118 L630,118 L886,374 L886,630 L886,630 Z M438,566 L566,566 L566,246 L438,246 L438,566 L438,566 Z M438,758 L566,758 L566,630 L438,630 L438,758 L438,758 Z" id="Shape" fill="#FFFFFF" sketch:type="MSShapeGroup"></path>
    </g>
</svg>